<svg xmlns="http://www.w3.org/2000/svg" xmlns:xlink="http://www.w3.org/1999/xlink" width="316" zoomAndPan="magnify" viewBox="0 0 236.87999 242.999999" height="324" preserveAspectRatio="xMidYMid meet" version="1.0"><defs><clipPath id="0fc35659b0"><path d="M 0 0.0625 L 236.761719 0.0625 L 236.761719 242.9375 L 0 242.9375 Z M 0 0.0625 " clip-rule="nonzero"/></clipPath><clipPath id="e747703cca"><path d="M 76 75.320312 L 161 75.320312 L 161 119 L 76 119 Z M 76 75.320312 " clip-rule="nonzero"/></clipPath><clipPath id="e9b4f828bb"><path d="M 83 128 L 154 128 L 154 167.523438 L 83 167.523438 Z M 83 128 " clip-rule="nonzero"/></clipPath><clipPath id="84841190dc"><path d="M 97.054688 112.046875 L 139 112.046875 L 139 149.527344 L 97.054688 149.527344 Z M 97.054688 112.046875 " clip-rule="nonzero"/></clipPath></defs><g clip-path="url(#0fc35659b0)"><path fill="#ffffff" d="M 0 0.0625 L 236.878906 0.0625 L 236.878906 250.433594 L 0 250.433594 Z M 0 0.0625 " fill-opacity="1" fill-rule="nonzero"/><path fill="#ffffff" d="M 0 0.0625 L 236.878906 0.0625 L 236.878906 242.9375 L 0 242.9375 Z M 0 0.0625 " fill-opacity="1" fill-rule="nonzero"/></g><g clip-path="url(#e747703cca)"><path fill="#293041" d="M 160.351562 115.539062 L 119.875 76.117188 C 119.097656 75.363281 117.859375 75.363281 117.082031 76.117188 L 76.605469 115.539062 C 75.8125 116.308594 75.796875 117.578125 76.566406 118.371094 C 77.339844 119.167969 78.609375 119.179688 79.398438 118.410156 L 118.476562 80.351562 L 157.558594 118.410156 C 157.945312 118.789062 158.449219 118.976562 158.953125 118.976562 C 159.476562 118.976562 159.996094 118.777344 160.390625 118.371094 C 161.160156 117.578125 161.144531 116.308594 160.351562 115.539062 Z M 160.351562 115.539062 " fill-opacity="1" fill-rule="nonzero"/></g><g clip-path="url(#e9b4f828bb)"><path fill="#293041" d="M 151.539062 128.667969 C 150.433594 128.667969 149.535156 129.5625 149.535156 130.671875 L 149.535156 159.882812 C 149.535156 161.90625 147.890625 163.554688 145.867188 163.554688 L 91.085938 163.554688 C 89.0625 163.554688 87.417969 161.90625 87.417969 159.882812 L 87.417969 130.671875 C 87.417969 129.5625 86.519531 128.667969 85.414062 128.667969 C 84.308594 128.667969 83.410156 129.5625 83.410156 130.671875 L 83.410156 159.882812 C 83.410156 164.117188 86.855469 167.5625 91.085938 167.5625 L 145.867188 167.5625 C 150.097656 167.5625 153.542969 164.117188 153.542969 159.882812 L 153.542969 130.671875 C 153.542969 129.5625 152.644531 128.667969 151.539062 128.667969 Z M 151.539062 128.667969 " fill-opacity="1" fill-rule="nonzero"/></g><g clip-path="url(#84841190dc)"><path fill="#ed1c24" d="M 128.78125 112.523438 C 122.371094 112.054688 118.417969 117.621094 118.417969 117.621094 C 118.417969 117.621094 114.464844 112.054688 108.058594 112.523438 C 101.648438 112.996094 97.050781 117.53125 97.988281 125.4375 C 99.359375 137.035156 117.207031 149.507812 118.417969 149.507812 C 119.628906 149.507812 137.480469 137.035156 138.851562 125.4375 C 139.785156 117.53125 135.1875 112.996094 128.78125 112.523438 " fill-opacity="1" fill-rule="nonzero"/></g></svg>