<svg xmlns="http://www.w3.org/2000/svg" xmlns:xlink="http://www.w3.org/1999/xlink" width="500" zoomAndPan="magnify" viewBox="0 0 375 374.999991" height="500" preserveAspectRatio="xMidYMid meet" version="1.0"><defs><g/><clipPath id="c62e010fbb"><path d="M 145 98 L 230.222656 98 L 230.222656 142 L 145 142 Z M 145 98 " clip-rule="nonzero"/></clipPath><clipPath id="c13c4d77ff"><path d="M 152 151 L 223 151 L 223 190.046875 L 152 190.046875 Z M 152 151 " clip-rule="nonzero"/></clipPath><clipPath id="6c6f3abcd2"><path d="M 166.105469 134.542969 L 208.855469 134.542969 L 208.855469 172.042969 L 166.105469 172.042969 Z M 166.105469 134.542969 " clip-rule="nonzero"/></clipPath></defs><rect x="-37.5" width="450" fill="#ffffff" y="-37.499999" height="449.999989" fill-opacity="1"/><rect x="-37.5" width="450" fill="#ffffff" y="-37.499999" height="449.999989" fill-opacity="1"/><rect x="-37.5" width="450" fill="#fdfdfd" y="-37.499999" height="449.999989" fill-opacity="1"/><g clip-path="url(#c62e010fbb)"><path fill="#293041" d="M 229.429688 138.035156 L 188.933594 98.59375 C 188.15625 97.839844 186.917969 97.839844 186.140625 98.59375 L 145.644531 138.035156 C 144.851562 138.808594 144.835938 140.074219 145.605469 140.871094 C 146.378906 141.667969 147.648438 141.679688 148.4375 140.910156 L 187.539062 102.832031 L 226.636719 140.910156 C 227.027344 141.285156 227.53125 141.476562 228.035156 141.476562 C 228.558594 141.476562 229.078125 141.273438 229.472656 140.871094 C 230.242188 140.074219 230.222656 138.808594 229.429688 138.035156 Z M 229.429688 138.035156 " fill-opacity="1" fill-rule="nonzero"/></g><g clip-path="url(#c13c4d77ff)"><path fill="#293041" d="M 220.617188 151.167969 C 219.511719 151.167969 218.613281 152.066406 218.613281 153.175781 L 218.613281 182.402344 C 218.613281 184.429688 216.96875 186.078125 214.941406 186.078125 L 160.132812 186.078125 C 158.109375 186.078125 156.460938 184.429688 156.460938 182.402344 L 156.460938 153.175781 C 156.460938 152.066406 155.5625 151.167969 154.457031 151.167969 C 153.351562 151.167969 152.453125 152.066406 152.453125 153.175781 L 152.453125 182.402344 C 152.453125 186.640625 155.898438 190.085938 160.132812 190.085938 L 214.941406 190.085938 C 219.175781 190.085938 222.621094 186.640625 222.621094 182.402344 L 222.621094 153.175781 C 222.621094 152.066406 221.722656 151.167969 220.617188 151.167969 Z M 220.617188 151.167969 " fill-opacity="1" fill-rule="nonzero"/></g><g clip-path="url(#6c6f3abcd2)"><path fill="#ed1c24" d="M 197.84375 135.019531 C 191.433594 134.550781 187.480469 140.121094 187.480469 140.121094 C 187.480469 140.121094 183.523438 134.550781 177.113281 135.019531 C 170.699219 135.492188 166.101562 140.027344 167.035156 147.941406 C 168.40625 159.542969 186.265625 172.019531 187.480469 172.019531 C 188.691406 172.019531 206.550781 159.542969 207.921875 147.941406 C 208.855469 140.027344 204.257812 135.492188 197.84375 135.019531 " fill-opacity="1" fill-rule="nonzero"/></g><g fill="#293041" fill-opacity="1"><g transform="translate(117.858172, 241.904804)"><g><path d="M 15.277344 0.609375 C 21.867188 0.609375 27.050781 -3.808594 28.269531 -10.402344 L 22.4375 -10.402344 C 21.488281 -7.046875 18.78125 -4.914062 15.277344 -4.914062 C 10.742188 -4.914062 7.351562 -8.496094 7.351562 -13.296875 C 7.351562 -18.097656 10.742188 -21.714844 15.277344 -21.714844 C 18.628906 -21.714844 21.296875 -19.734375 22.402344 -16.609375 L 28.152344 -16.609375 C 26.933594 -22.933594 21.753906 -27.238281 15.277344 -27.238281 C 7.429688 -27.238281 1.484375 -21.21875 1.484375 -13.296875 C 1.484375 -5.410156 7.429688 0.609375 15.277344 0.609375 Z M 15.277344 0.609375 "/></g></g></g><g fill="#293041" fill-opacity="1"><g transform="translate(148.105691, 241.904804)"><g><path d="M 19.429688 -20.574219 L 18.859375 -18.628906 C 17.066406 -20.191406 14.742188 -21.144531 12.078125 -21.144531 C 5.90625 -21.144531 1.296875 -16.496094 1.296875 -10.285156 C 1.296875 -4.078125 5.90625 0.609375 12.078125 0.609375 C 14.707031 0.609375 16.992188 -0.304688 18.742188 -1.867188 L 19.238281 0 L 23.582031 0 L 23.582031 -20.574219 Z M 12.535156 -4.648438 C 9.296875 -4.648438 6.933594 -7.085938 6.933594 -10.285156 C 6.933594 -13.523438 9.296875 -15.925781 12.535156 -15.925781 C 15.773438 -15.925781 18.132812 -13.523438 18.132812 -10.285156 C 18.132812 -7.046875 15.773438 -4.648438 12.535156 -4.648438 Z M 12.535156 -4.648438 "/></g></g></g><g fill="#293041" fill-opacity="1"><g transform="translate(175.267526, 241.904804)"><g><path d="M 9.941406 0.609375 C 15.164062 0.609375 18.589844 -2.132812 18.589844 -6.324219 C 18.589844 -11.351562 14.285156 -12.039062 10.933594 -12.648438 C 8.800781 -13.027344 7.046875 -13.371094 7.046875 -14.742188 C 7.046875 -15.925781 8.078125 -16.6875 9.789062 -16.6875 C 11.734375 -16.6875 12.875 -15.886719 12.914062 -14.25 L 18.210938 -14.25 C 18.171875 -18.363281 14.894531 -21.144531 9.941406 -21.144531 C 4.992188 -21.144531 1.675781 -18.4375 1.675781 -14.554688 C 1.675781 -9.714844 5.867188 -8.839844 9.144531 -8.265625 C 11.316406 -7.925781 13.105469 -7.503906 13.105469 -6.09375 C 13.105469 -4.722656 11.695312 -4 10.171875 -4 C 8.191406 -4 6.78125 -4.914062 6.742188 -6.742188 L 1.332031 -6.742188 C 1.332031 -2.363281 4.800781 0.609375 9.941406 0.609375 Z M 9.941406 0.609375 "/></g></g></g><g fill="#293041" fill-opacity="1"><g transform="translate(196.143705, 241.904804)"><g><path d="M 2.667969 -23.316406 L 8.191406 -23.316406 L 8.191406 -28.457031 L 2.667969 -28.457031 Z M 2.667969 0 L 8.230469 0 L 8.230469 -20.574219 L 2.667969 -20.574219 Z M 2.667969 0 "/></g></g></g><g fill="#293041" fill-opacity="1"><g transform="translate(207.915219, 241.904804)"><g><path d="M 14.363281 -21.03125 C 11.582031 -21.03125 9.105469 -19.847656 7.542969 -18.019531 L 6.476562 -20.574219 L 2.667969 -20.574219 L 2.667969 0 L 8.230469 0 L 8.230469 -10.78125 C 8.230469 -14.097656 9.980469 -16.152344 12.839844 -16.152344 C 15.238281 -16.152344 16.417969 -14.667969 16.417969 -11.542969 L 16.417969 0 L 21.980469 0 L 21.980469 -12.457031 C 21.980469 -17.675781 19.046875 -21.03125 14.363281 -21.03125 Z M 14.363281 -21.03125 "/></g></g></g><g fill="#293041" fill-opacity="1"><g transform="translate(233.210407, 241.904804)"><g><path d="M 22.628906 -10.324219 C 22.628906 -16.265625 18.285156 -21.144531 11.960938 -21.144531 C 5.867188 -21.144531 1.296875 -16.457031 1.296875 -10.285156 C 1.296875 -4.113281 5.90625 0.609375 11.960938 0.609375 C 16.761719 0.609375 20.6875 -2.246094 22.171875 -6.742188 L 16.34375 -6.742188 C 15.503906 -5.257812 13.90625 -4.34375 11.960938 -4.34375 C 9.257812 -4.34375 7.429688 -5.90625 6.933594 -8.722656 L 22.515625 -8.722656 C 22.589844 -9.257812 22.628906 -9.789062 22.628906 -10.324219 Z M 11.960938 -16.382812 C 14.476562 -16.382812 16.265625 -15.011719 17.066406 -12.496094 L 7.085938 -12.496094 C 7.734375 -14.933594 9.484375 -16.382812 11.960938 -16.382812 Z M 11.960938 -16.382812 "/></g></g></g><g fill="#ed1c24" fill-opacity="1"><g transform="translate(121.130547, 272.58402)"><g><path d="M 6.90625 0 L 9 0 L 5.40625 -8.886719 L 3.59375 -8.886719 L 0.101562 0 L 2.144531 0 L 2.753906 -1.675781 L 6.285156 -1.675781 Z M 4.519531 -6.539062 L 5.6875 -3.351562 L 3.351562 -3.351562 Z M 4.519531 -6.539062 "/></g></g></g><g fill="#ed1c24" fill-opacity="1"><g transform="translate(135.412503, 272.58402)"><g><path d="M 4.429688 -8.886719 L 1.015625 -8.886719 L 1.015625 0 L 2.933594 0 L 2.933594 -2.765625 L 4.429688 -2.765625 C 6.21875 -2.765625 7.566406 -4.074219 7.566406 -5.828125 C 7.566406 -7.578125 6.207031 -8.886719 4.429688 -8.886719 Z M 4.339844 -4.542969 L 2.933594 -4.542969 L 2.933594 -7.097656 L 4.339844 -7.097656 C 5.101562 -7.097656 5.625 -6.5625 5.625 -5.828125 C 5.625 -5.089844 5.101562 -4.542969 4.339844 -4.542969 Z M 4.339844 -4.542969 "/></g></g></g><g fill="#ed1c24" fill-opacity="1"><g transform="translate(148.475805, 272.58402)"><g><path d="M 6.90625 0 L 9 0 L 5.40625 -8.886719 L 3.59375 -8.886719 L 0.101562 0 L 2.144531 0 L 2.753906 -1.675781 L 6.285156 -1.675781 Z M 4.519531 -6.539062 L 5.6875 -3.351562 L 3.351562 -3.351562 Z M 4.519531 -6.539062 "/></g></g></g><g fill="#ed1c24" fill-opacity="1"><g transform="translate(162.757762, 272.58402)"><g><path d="M 5.902344 0 L 8.046875 0 L 6.082031 -3.351562 C 7.070312 -3.832031 7.707031 -4.773438 7.707031 -5.941406 C 7.707031 -7.65625 6.371094 -8.886719 4.59375 -8.886719 L 1.015625 -8.886719 L 1.015625 0 L 2.933594 0 L 2.933594 -3.019531 L 4.164062 -3.019531 Z M 2.933594 -7.109375 L 4.46875 -7.109375 C 5.28125 -7.109375 5.75 -6.613281 5.75 -5.953125 C 5.75 -5.28125 5.28125 -4.796875 4.46875 -4.796875 L 2.933594 -4.796875 Z M 2.933594 -7.109375 "/></g></g></g><g fill="#ed1c24" fill-opacity="1"><g transform="translate(176.316147, 272.58402)"><g><path d="M 7.132812 -8.886719 L 0.265625 -8.886719 L 0.265625 -7.097656 L 2.742188 -7.097656 L 2.742188 0 L 4.660156 0 L 4.660156 -7.097656 L 7.132812 -7.097656 Z M 7.132812 -8.886719 "/></g></g></g><g fill="#ed1c24" fill-opacity="1"><g transform="translate(188.897065, 272.58402)"><g><path d="M 11.894531 0 L 10.523438 -8.886719 L 8.59375 -8.886719 L 6.183594 -3.425781 L 3.769531 -8.886719 L 1.851562 -8.886719 L 0.457031 0 L 2.410156 0 L 3.289062 -5.789062 L 5.941406 -0.0117188 L 6.410156 -0.0117188 L 9.0625 -5.789062 L 9.941406 0 Z M 11.894531 0 "/></g></g></g><g fill="#ed1c24" fill-opacity="1"><g transform="translate(206.441459, 272.58402)"><g><path d="M 2.933594 -1.777344 L 2.933594 -3.605469 L 6.015625 -3.605469 L 6.015625 -5.34375 L 2.933594 -5.34375 L 2.933594 -7.109375 L 6.347656 -7.109375 L 6.347656 -8.886719 L 1.015625 -8.886719 L 1.015625 0 L 6.488281 0 L 6.488281 -1.777344 Z M 2.933594 -1.777344 "/></g></g></g><g fill="#ed1c24" fill-opacity="1"><g transform="translate(218.705031, 272.58402)"><g><path d="M 6.640625 -8.886719 L 6.640625 -3.464844 L 2.742188 -8.886719 L 1.015625 -8.886719 L 1.015625 0 L 2.894531 0 L 2.894531 -5.546875 L 6.917969 0 L 8.53125 0 L 8.53125 -8.886719 Z M 6.640625 -8.886719 "/></g></g></g><g fill="#ed1c24" fill-opacity="1"><g transform="translate(233.418591, 272.58402)"><g><path d="M 7.132812 -8.886719 L 0.265625 -8.886719 L 0.265625 -7.097656 L 2.742188 -7.097656 L 2.742188 0 L 4.660156 0 L 4.660156 -7.097656 L 7.132812 -7.097656 Z M 7.132812 -8.886719 "/></g></g></g><g fill="#ed1c24" fill-opacity="1"><g transform="translate(245.999509, 272.58402)"><g><path d="M 3.960938 0.175781 C 5.800781 0.175781 7.324219 -0.75 7.324219 -2.664062 C 7.324219 -4.660156 5.625 -5.078125 4.277344 -5.421875 C 3.324219 -5.648438 2.5625 -5.839844 2.5625 -6.460938 C 2.5625 -7.046875 3.1875 -7.3125 3.808594 -7.3125 C 4.53125 -7.3125 5.167969 -6.957031 5.167969 -6.183594 L 7.058594 -6.183594 C 7.058594 -7.960938 5.902344 -9.050781 3.859375 -9.050781 C 1.890625 -9.050781 0.632812 -8.085938 0.632812 -6.386719 C 0.632812 -4.46875 2.257812 -4.074219 3.605469 -3.746094 C 4.570312 -3.527344 5.382812 -3.339844 5.382812 -2.640625 C 5.382812 -1.980469 4.671875 -1.597656 3.949219 -1.597656 C 3.160156 -1.597656 2.449219 -2.019531 2.449219 -2.867188 L 0.507812 -2.867188 C 0.507812 -0.964844 1.917969 0.175781 3.960938 0.175781 Z M 3.960938 0.175781 "/></g></g></g></svg>